<mxfile host="65bd71144e">
    <diagram id="zW6vZ7ePiue0_mPMlm_C" name="Page-1">
        <mxGraphModel dx="818" dy="624" grid="1" gridSize="10" guides="1" tooltips="1" connect="1" arrows="1" fold="1" page="1" pageScale="1" pageWidth="900" pageHeight="1600" math="0" shadow="0">
            <root>
                <mxCell id="0"/>
                <mxCell id="1" parent="0"/>
                <mxCell id="2" value="" style="rounded=0;whiteSpace=wrap;html=1;" parent="1" vertex="1">
                    <mxGeometry x="50" y="200" width="230" height="440" as="geometry"/>
                </mxCell>
                <mxCell id="3" value="&amp;nbsp;ECS 函数执行栈" style="text;html=1;align=center;verticalAlign=middle;resizable=0;points=[];autosize=1;strokeColor=none;fillColor=none;" parent="1" vertex="1">
                    <mxGeometry x="100" y="150" width="110" height="20" as="geometry"/>
                </mxCell>
                <mxCell id="4" value="" style="rounded=0;whiteSpace=wrap;html=1;" parent="1" vertex="1">
                    <mxGeometry x="72.5" y="530" width="155" height="90" as="geometry"/>
                </mxCell>
                <mxCell id="7" value="全局执行上下文&amp;nbsp;" style="text;html=1;strokeColor=none;fillColor=none;align=center;verticalAlign=middle;whiteSpace=wrap;rounded=0;" parent="1" vertex="1">
                    <mxGeometry x="120" y="490" width="60" height="30" as="geometry"/>
                </mxCell>
                <mxCell id="9" value="&amp;nbsp;VO：GO&lt;br&gt;scope_chain:GO" style="rounded=0;whiteSpace=wrap;html=1;" parent="1" vertex="1">
                    <mxGeometry x="92" y="540" width="130" height="30" as="geometry"/>
                </mxCell>
                <mxCell id="10" value="执行代码 fn = foo()" style="rounded=0;whiteSpace=wrap;html=1;" parent="1" vertex="1">
                    <mxGeometry x="92" y="570" width="130" height="30" as="geometry"/>
                </mxCell>
                <mxCell id="11" value="&amp;nbsp;GO：{&lt;br&gt;String&lt;br&gt;Date&lt;br&gt;Number&lt;br&gt;……&lt;br&gt;window&lt;br&gt;fn:0x20&lt;br&gt;}" style="rounded=0;whiteSpace=wrap;html=1;" parent="1" vertex="1">
                    <mxGeometry x="360" y="200" width="140" height="140" as="geometry"/>
                </mxCell>
                <mxCell id="13" value="全局对象" style="text;html=1;strokeColor=none;fillColor=none;align=center;verticalAlign=middle;whiteSpace=wrap;rounded=0;" parent="1" vertex="1">
                    <mxGeometry x="390" y="150" width="60" height="30" as="geometry"/>
                </mxCell>
                <mxCell id="15" value="" style="rounded=0;whiteSpace=wrap;html=1;" parent="1" vertex="1">
                    <mxGeometry x="590" y="200" width="140" height="140" as="geometry"/>
                </mxCell>
                <mxCell id="16" value="0x10 foo&amp;nbsp; 解析时创建" style="text;html=1;strokeColor=none;fillColor=none;align=center;verticalAlign=middle;whiteSpace=wrap;rounded=0;" parent="1" vertex="1">
                    <mxGeometry x="606" y="150" width="110" height="30" as="geometry"/>
                </mxCell>
                <mxCell id="17" value="&amp;nbsp;parent_scope: GO" style="rounded=0;whiteSpace=wrap;html=1;" parent="1" vertex="1">
                    <mxGeometry x="600" y="210" width="120" height="60" as="geometry"/>
                </mxCell>
                <mxCell id="18" value="&amp;nbsp;代码体" style="rounded=0;whiteSpace=wrap;html=1;" parent="1" vertex="1">
                    <mxGeometry x="600" y="270" width="120" height="60" as="geometry"/>
                </mxCell>
                <mxCell id="19" value="" style="rounded=0;whiteSpace=wrap;html=1;" parent="1" vertex="1">
                    <mxGeometry x="60" y="290" width="200" height="180" as="geometry"/>
                </mxCell>
                <mxCell id="20" value="VO：AO&lt;br&gt;scope_chain:AO+Parent_scope" style="rounded=0;whiteSpace=wrap;html=1;" parent="1" vertex="1">
                    <mxGeometry x="70" y="300" width="180" height="80" as="geometry"/>
                </mxCell>
                <mxCell id="22" value="函数执行上下文" style="text;html=1;strokeColor=none;fillColor=none;align=center;verticalAlign=middle;whiteSpace=wrap;rounded=0;" parent="1" vertex="1">
                    <mxGeometry x="120" y="270" width="60" height="30" as="geometry"/>
                </mxCell>
                <mxCell id="23" value="&amp;nbsp;执行代码&amp;nbsp;" style="rounded=0;whiteSpace=wrap;html=1;" parent="1" vertex="1">
                    <mxGeometry x="70" y="380" width="180" height="80" as="geometry"/>
                </mxCell>
                <mxCell id="24" value="&amp;nbsp;AO：{&lt;br&gt;name: cy&lt;br&gt;age:20&lt;br&gt;&lt;br&gt;}" style="rounded=0;whiteSpace=wrap;html=1;" parent="1" vertex="1">
                    <mxGeometry x="360" y="415" width="140" height="150" as="geometry"/>
                </mxCell>
                <mxCell id="25" value="" style="rounded=0;whiteSpace=wrap;html=1;" parent="1" vertex="1">
                    <mxGeometry x="580" y="420" width="140" height="140" as="geometry"/>
                </mxCell>
                <mxCell id="26" value="0x20 bar&amp;nbsp; 解析时创建" style="text;html=1;strokeColor=none;fillColor=none;align=center;verticalAlign=middle;whiteSpace=wrap;rounded=0;" parent="1" vertex="1">
                    <mxGeometry x="596" y="370" width="110" height="30" as="geometry"/>
                </mxCell>
                <mxCell id="27" value="&amp;nbsp;parent_scope: foo的AO" style="rounded=0;whiteSpace=wrap;html=1;" parent="1" vertex="1">
                    <mxGeometry x="591" y="430" width="120" height="60" as="geometry"/>
                </mxCell>
                <mxCell id="28" value="&amp;nbsp;console.log(name)" style="rounded=0;whiteSpace=wrap;html=1;" parent="1" vertex="1">
                    <mxGeometry x="590" y="490" width="120" height="60" as="geometry"/>
                </mxCell>
                <mxCell id="29" value="foo的AO对象" style="text;html=1;strokeColor=none;fillColor=none;align=center;verticalAlign=middle;whiteSpace=wrap;rounded=0;" parent="1" vertex="1">
                    <mxGeometry x="400" y="365" width="60" height="30" as="geometry"/>
                </mxCell>
                <mxCell id="30" value="" style="endArrow=classic;html=1;entryX=0;entryY=0.25;entryDx=0;entryDy=0;" parent="1" target="25" edge="1">
                    <mxGeometry width="50" height="50" relative="1" as="geometry">
                        <mxPoint x="450" y="310" as="sourcePoint"/>
                        <mxPoint x="500" y="260" as="targetPoint"/>
                        <Array as="points">
                            <mxPoint x="470" y="290"/>
                        </Array>
                    </mxGeometry>
                </mxCell>
                <mxCell id="35" value="" style="endArrow=classic;html=1;" parent="1" source="28" edge="1">
                    <mxGeometry width="50" height="50" relative="1" as="geometry">
                        <mxPoint x="360" y="530" as="sourcePoint"/>
                        <mxPoint x="410" y="480" as="targetPoint"/>
                    </mxGeometry>
                </mxCell>
            </root>
        </mxGraphModel>
    </diagram>
</mxfile>